<?xml version="1.0" encoding="UTF-8" standalone="no"?>
<svg
   xmlns:dc="http://purl.org/dc/elements/1.1/"
   xmlns:cc="http://creativecommons.org/ns#"
   xmlns:rdf="http://www.w3.org/1999/02/22-rdf-syntax-ns#"
   xmlns:svg="http://www.w3.org/2000/svg"
   xmlns="http://www.w3.org/2000/svg"
   viewBox="0 0 434.66666 192"
   height="192"
   width="434.66666"
   xml:space="preserve"
   id="svg2"
   version="1.1"><metadata
     id="metadata8"><rdf:RDF><cc:Work
         rdf:about=""><dc:format>image/svg+xml</dc:format><dc:type
           rdf:resource="http://purl.org/dc/dcmitype/StillImage" /></cc:Work></rdf:RDF></metadata><defs
     id="defs6"><clipPath
       id="clipPath18"
       clipPathUnits="userSpaceOnUse"><path
         id="path16"
         d="M 0,144 H 326 V 0 H 0 Z" /></clipPath></defs><g
     transform="matrix(1.3333333,0,0,-1.3333333,0,192)"
     id="g10"><g
       id="g12"><g
         clip-path="url(#clipPath18)"
         id="g14"><g
           transform="translate(289.9487,51.4917)"
           id="g20"><path
             id="path22"
             style="fill:#000000;fill-opacity:1;fill-rule:nonzero;stroke:none"
             d="M 0,0 H -19.819 V 19.286 H 0 c 7.245,0 10.656,-3.197 10.656,-9.592 C 10.656,3.837 7.245,0 0,0 m -19.819,46.668 h 18.965 c 6.501,0 9.165,-2.452 9.165,-7.139 0,-4.154 -2.238,-7.032 -8.418,-7.032 H -19.819 Z M 15.556,26.211 c 4.899,2.983 7.884,8.097 7.884,14.492 0,12.786 -9.163,19.709 -23.654,19.709 H -34.415 V -14.17 h 33.882 c 15.981,0 26.53,8.416 26.53,24.081 0,8.203 -4.476,13.636 -10.441,16.3" /></g><g
           transform="translate(245.9443,37.3213)"
           id="g24"><path
             id="path26"
             style="fill:#000000;fill-opacity:1;fill-rule:nonzero;stroke:none"
             d="M 0,0 V 74.584 H -14.703 V 43.045 c 0,-4.154 0.212,-13.531 0.212,-16.302 -0.957,1.918 -3.407,5.649 -5.221,8.418 L -46.135,74.584 H -60.412 V 0 h 14.703 v 32.815 c 0,4.157 -0.214,13.535 -0.214,16.303 0.961,-1.916 3.411,-5.646 5.223,-8.415 L -13.317,0 Z" /></g><g
           transform="translate(176.4771,70.2446)"
           id="g28"><path
             id="path30"
             style="fill:#000000;fill-opacity:1;fill-rule:nonzero;stroke:none"
             d="M 0,0 V 41.659 H -14.917 V -0.214 c 0,-11.932 -5.859,-19.284 -15.344,-19.284 -9.48,0 -15.234,7.563 -15.234,19.498 V 41.659 H -60.41 V -0.214 c 0,-21.734 12.144,-33.88 30.149,-33.88 C -11.294,-34.094 0,-21.629 0,0" /></g><g
           transform="translate(314.708,12.2412)"
           id="g32"><path
             id="path34"
             style="fill:#000000;fill-opacity:1;fill-rule:nonzero;stroke:none"
             d="m 0,0 -4.576,8.165 3.751,4.647 h -2.176 l -3.79,-4.74 C -7.213,7.541 -8.054,6.479 -8.272,6.15 c 0.016,0.404 0.036,1.794 0.036,2.27 v 4.392 h -1.868 V 0 h 1.868 V 3.696 L -5.859,6.572 -2.179,0 Z" /></g><g
           transform="translate(301.6567,14.4917)"
           id="g36"><path
             id="path38"
             style="fill:#000000;fill-opacity:1;fill-rule:nonzero;stroke:none"
             d="m 0,0 -1.591,1.062 c -0.66,-1.043 -1.483,-1.593 -2.819,-1.593 -2.236,0 -3.441,1.812 -3.441,4.686 0,2.875 1.205,4.687 3.441,4.687 1.317,0 1.994,-0.494 2.653,-1.538 l 1.702,1.062 c -0.877,1.554 -2.27,2.397 -4.355,2.397 -3.313,0 -5.419,-2.728 -5.419,-6.608 0,-3.879 2.106,-6.607 5.419,-6.607 1.939,0 3.496,0.88 4.41,2.452" /></g><path
           id="path40"
           style="fill:#000000;fill-opacity:1;fill-rule:nonzero;stroke:none"
           d="m 288.826,25.054 h -1.921 V 12.242 h 1.921 z" /><g
           transform="translate(284.0498,25.0537)"
           id="g42"><path
             id="path44"
             style="fill:#000000;fill-opacity:1;fill-rule:nonzero;stroke:none"
             d="m 0,0 h -1.867 l -1.556,-8.272 c -0.055,-0.312 -0.164,-1.025 -0.258,-1.499 -0.072,0.455 -0.218,1.132 -0.309,1.481 L -6.076,0 h -1.647 l -2.049,-8.108 c -0.093,-0.385 -0.278,-1.246 -0.349,-1.663 -0.056,0.417 -0.22,1.298 -0.294,1.679 L -11.95,0 h -1.942 l 2.616,-12.812 h 1.905 l 2.085,8.273 c 0.112,0.437 0.312,1.39 0.367,1.702 0.055,-0.312 0.255,-1.265 0.367,-1.702 l 1.994,-8.273 h 1.942 z" /></g><g
           transform="translate(268.418,15.9204)"
           id="g46"><path
             id="path48"
             style="fill:#000000;fill-opacity:1;fill-rule:nonzero;stroke:none"
             d="m 0,0 c 0,2.288 -1.575,3.092 -4.1,3.86 -2.215,0.661 -2.8,1.099 -2.8,1.999 0,0.857 0.64,1.591 2.142,1.591 1.262,0 2.176,-0.404 2.983,-1.226 l 1.353,1.372 c -1.135,1.098 -2.452,1.738 -4.191,1.738 -2.361,0 -4.229,-1.354 -4.229,-3.568 0,-2.288 1.301,-2.965 4.01,-3.772 2.143,-0.64 2.893,-1.133 2.893,-2.121 0,-1.245 -0.862,-1.869 -2.655,-1.869 -1.208,0 -2.47,0.585 -3.332,1.522 l -1.372,-1.338 c 1.08,-1.262 2.689,-2.069 4.558,-2.069 C -1.465,-3.881 0,-2.306 0,0" /></g><g
           transform="translate(256.3198,12.2412)"
           id="g50"><path
             id="path52"
             style="fill:#000000;fill-opacity:1;fill-rule:nonzero;stroke:none"
             d="M 0,0 V 12.812 H -1.866 V 6.208 c 0,-0.716 0.018,-2.546 0.018,-3.022 -0.183,0.33 -0.734,1.28 -1.062,1.812 l -4.87,7.814 H -9.738 V 0 h 1.867 v 6.643 c 0,0.715 -0.019,2.49 -0.019,2.967 0.203,-0.331 0.641,-1.099 0.953,-1.575 L -1.83,0 Z" /></g><g
           transform="translate(243.1597,17.5859)"
           id="g54"><path
             id="path56"
             style="fill:#000000;fill-opacity:1;fill-rule:nonzero;stroke:none"
             d="m 0,0 v 7.468 h -1.921 v -7.505 c 0,-2.344 -0.953,-3.587 -2.967,-3.587 -1.921,0 -2.928,1.299 -2.928,3.715 V 7.468 H -9.737 V 0.037 c 0,-3.533 1.647,-5.584 4.815,-5.584 C -1.739,-5.547 0,-3.587 0,0" /></g><g
           transform="translate(222.6973,19.1235)"
           id="g58"><path
             id="path60"
             style="fill:#000000;fill-opacity:1;fill-rule:nonzero;stroke:none"
             d="M 0,0 V 4.118 H 3.735 C 5.034,4.118 5.912,3.386 5.912,2.051 5.912,0.658 5.016,0 3.735,0 Z m 7.851,2.103 c 0,2.637 -1.885,3.826 -4.116,3.826 h -5.62 V -6.882 H 0 v 5.07 h 2.892 l 2.545,-5.07 H 7.65 l -2.616,5.234 c 1.739,0.438 2.817,1.703 2.817,3.751" /></g><g
           transform="translate(213.5088,13.998)"
           id="g62"><path
             id="path64"
             style="fill:#000000;fill-opacity:1;fill-rule:nonzero;stroke:none"
             d="M 0,0 H -3.423 V 4.245 H 0.055 C 1.502,4.245 2.324,3.441 2.324,2.124 2.324,0.861 1.702,0 0,0 m -3.423,9.297 h 3.441 c 1.281,0 1.775,-0.731 1.775,-1.684 0,-0.841 -0.512,-1.627 -1.775,-1.627 h -3.441 z m 5.51,-4.135 c 0.933,0.458 1.63,1.262 1.63,2.561 0,2.162 -1.447,3.334 -3.68,3.334 H -5.234 V -1.757 h 5.088 c 2.801,0 4.392,1.338 4.392,3.935 0,1.776 -1.151,2.71 -2.159,2.984" /></g><g
           transform="translate(201.9414,25.0537)"
           id="g66"><path
             id="path68"
             style="fill:#000000;fill-opacity:1;fill-rule:nonzero;stroke:none"
             d="m 0,0 h -1.866 l -1.557,-8.272 c -0.055,-0.312 -0.164,-1.025 -0.255,-1.499 -0.073,0.455 -0.219,1.132 -0.31,1.481 L -6.075,0 h -1.648 l -2.049,-8.108 c -0.093,-0.385 -0.275,-1.246 -0.349,-1.663 -0.056,0.417 -0.22,1.298 -0.294,1.679 L -11.95,0 h -1.942 l 2.619,-12.812 h 1.902 l 2.085,8.273 c 0.112,0.437 0.313,1.39 0.369,1.702 0.053,-0.312 0.256,-1.265 0.365,-1.702 l 1.994,-8.273 h 1.942 z" /></g><g
           transform="translate(186,12.2412)"
           id="g70"><path
             id="path72"
             style="fill:#000000;fill-opacity:1;fill-rule:nonzero;stroke:none"
             d="m 0,0 v 1.866 h -6.609 v 4.045 h 3.681 V 7.78 h -3.681 v 3.165 h 6.333 v 1.867 H -8.53 V 0 Z" /></g><g
           transform="translate(173.9575,12.2412)"
           id="g74"><path
             id="path76"
             style="fill:#000000;fill-opacity:1;fill-rule:nonzero;stroke:none"
             d="M 0,0 V 12.812 H -1.867 V 6.208 c 0,-0.716 0.019,-2.546 0.019,-3.022 -0.183,0.33 -0.734,1.28 -1.062,1.812 l -4.87,7.814 H -9.738 V 0 h 1.866 v 6.643 c 0,0.715 -0.015,2.49 -0.015,2.967 0.2,-0.331 0.638,-1.099 0.95,-1.575 L -1.83,0 Z" /></g><g
           transform="translate(158.436,23.1675)"
           id="g78"><path
             id="path80"
             style="fill:#000000;fill-opacity:1;fill-rule:nonzero;stroke:none"
             d="m 0,0 v 1.887 h -8.254 v -12.814 h 1.923 v 5.693 h 3.678 V -3.35 H -6.331 V 0 Z" /></g><g
           transform="translate(141.8354,13.9614)"
           id="g82"><path
             id="path84"
             style="fill:#000000;fill-opacity:1;fill-rule:nonzero;stroke:none"
             d="m 0,0 c -2.233,0 -3.459,1.812 -3.459,4.686 0,2.873 1.226,4.685 3.459,4.685 2.251,0 3.478,-1.812 3.478,-4.685 C 3.478,1.812 2.251,0 0,0 m 0,11.292 c -3.313,0 -5.417,-2.728 -5.417,-6.606 0,-3.881 2.104,-6.609 5.417,-6.609 3.332,0 5.435,2.728 5.435,6.609 0,3.878 -2.103,6.606 -5.435,6.606" /></g><g
           transform="translate(132.3169,25.0537)"
           id="g86"><path
             id="path88"
             style="fill:#000000;fill-opacity:1;fill-rule:nonzero;stroke:none"
             d="m 0,0 h -2.215 l -2.012,-3.55 c -0.458,-0.823 -1.096,-2.051 -1.317,-2.525 -0.221,0.474 -0.88,1.755 -1.32,2.543 L -8.858,0 h -2.251 l 4.594,-7.743 v -5.069 h 1.921 v 5.069 z" /></g><g
           transform="translate(120.2383,23.1675)"
           id="g90"><path
             id="path92"
             style="fill:#000000;fill-opacity:1;fill-rule:nonzero;stroke:none"
             d="M 0,0 V 1.887 H -9.389 V 0 h 3.733 v -10.927 h 1.923 l 0,10.927 z" /></g><path
           id="path94"
           style="fill:#000000;fill-opacity:1;fill-rule:nonzero;stroke:none"
           d="M 108.141,25.054 H 106.22 V 12.242 h 1.921 z" /><g
           transform="translate(103.0703,15.9204)"
           id="g96"><path
             id="path98"
             style="fill:#000000;fill-opacity:1;fill-rule:nonzero;stroke:none"
             d="M 0,0 C 0,2.288 -1.575,3.092 -4.102,3.86 -6.315,4.521 -6.9,4.959 -6.9,5.859 c 0,0.857 0.64,1.591 2.142,1.591 1.262,0 2.176,-0.404 2.983,-1.226 l 1.354,1.372 c -1.136,1.098 -2.453,1.738 -4.191,1.738 -2.361,0 -4.23,-1.354 -4.23,-3.568 0,-2.288 1.301,-2.965 4.011,-3.772 2.14,-0.64 2.892,-1.133 2.892,-2.121 0,-1.245 -0.864,-1.869 -2.655,-1.869 -1.208,0 -2.47,0.585 -3.332,1.522 L -9.3,-1.812 c 1.08,-1.262 2.691,-2.069 4.56,-2.069 C -1.465,-3.881 0,-2.306 0,0" /></g><g
           transform="translate(83.4858,19.1235)"
           id="g100"><path
             id="path102"
             style="fill:#000000;fill-opacity:1;fill-rule:nonzero;stroke:none"
             d="M 0,0 V 4.118 H 3.732 C 5.034,4.118 5.911,3.386 5.911,2.051 5.911,0.658 5.016,0 3.732,0 Z m 7.851,2.103 c 0,2.637 -1.885,3.826 -4.119,3.826 H -1.885 V -6.882 H 0 v 5.07 h 2.892 l 2.545,-5.07 H 7.65 l -2.616,5.234 c 1.738,0.438 2.817,1.703 2.817,3.751" /></g><g
           transform="translate(78.6914,12.2412)"
           id="g104"><path
             id="path106"
             style="fill:#000000;fill-opacity:1;fill-rule:nonzero;stroke:none"
             d="M 0,0 V 1.866 H -6.608 V 5.911 H -2.93 V 7.78 h -3.678 v 3.165 h 6.333 v 1.867 H -8.53 L -8.53,0 Z" /></g><g
           transform="translate(67.4526,25.0537)"
           id="g108"><path
             id="path110"
             style="fill:#000000;fill-opacity:1;fill-rule:nonzero;stroke:none"
             d="m 0,0 h -2.051 l -2.635,-8.145 c -0.236,-0.749 -0.604,-1.904 -0.713,-2.36 -0.109,0.456 -0.476,1.59 -0.715,2.342 L -8.785,0 h -2.088 l 4.449,-12.812 h 2.03 z" /></g><path
           id="path112"
           style="fill:#000000;fill-opacity:1;fill-rule:nonzero;stroke:none"
           d="M 54.146,25.054 H 52.223 V 12.242 h 1.923 z" /><g
           transform="translate(48.8022,12.2412)"
           id="g114"><path
             id="path116"
             style="fill:#000000;fill-opacity:1;fill-rule:nonzero;stroke:none"
             d="M 0,0 V 12.812 H -1.866 V 6.208 c 0,-0.716 0.018,-2.546 0.018,-3.022 -0.182,0.33 -0.734,1.28 -1.062,1.812 l -4.87,7.814 H -9.738 V 0 h 1.867 v 6.643 c 0,0.715 -0.019,2.49 -0.019,2.967 0.203,-0.331 0.641,-1.099 0.953,-1.575 L -1.832,0 Z" /></g><g
           transform="translate(35.6421,17.5859)"
           id="g118"><path
             id="path120"
             style="fill:#000000;fill-opacity:1;fill-rule:nonzero;stroke:none"
             d="m 0,0 v 7.468 h -1.923 v -7.505 c 0,-2.344 -0.951,-3.587 -2.965,-3.587 -1.921,0 -2.926,1.299 -2.926,3.715 V 7.468 H -9.737 V 0.037 c 0,-3.533 1.647,-5.584 4.815,-5.584 C -1.739,-5.547 0,-3.587 0,0" /></g><g
           transform="translate(67.8843,124.7583)"
           id="g122"><path
             id="path124"
             style="fill:#ef3e42;fill-opacity:1;fill-rule:nonzero;stroke:none"
             d="m 0,0 c 1.331,-2.573 9.229,-17.657 -1.24,-42.63 -7.399,-17.639 -25.685,-24.61 -25.685,-24.61 -6.902,-1.754 -29.235,-10.949 -30.32,-11.465 -0.547,-0.255 -0.859,0.399 -0.259,0.755 5.603,3.336 31.229,14.527 41.7,34.426 13.263,25.213 0.606,50.728 0.606,50.728 4.67,-1.812 10.253,-4.59 15.048,-6.673 20.928,-9.199 40.868,-23.078 35.276,-55.364 -2.481,-14.321 -10.738,-24.218 -10.738,-24.218 -1.969,8.238 -20.963,13.557 -36.55,13.735 1.46,0.316 3.792,0.542 4.961,0.581 17.832,0.542 20.131,-1.199 20.131,-1.199 0,0 9.12,9.006 9.366,28.723 C 22.583,-14.343 3.742,-2.078 0,0" /></g><g
           transform="translate(85.6807,40.6636)"
           id="g126"><path
             id="path128"
             style="fill:#000000;fill-opacity:1;fill-rule:nonzero;stroke:none"
             d="m 0,0 c 0,1.792 -1.142,3.115 -3.396,3.115 -0.886,0 -1.579,-0.198 -2.128,-0.508 L -5.326,5.1 h 4.734 v 1.411 h -6.057 l -0.338,-4.82 1.577,-0.62 c 0.508,0.381 1.071,0.62 1.901,0.62 1.226,0 2.003,-0.592 2.003,-1.759 0,-1.256 -0.805,-2.003 -2.341,-2.003 -0.886,0 -1.93,0.296 -2.761,0.761 L -7.326,-2.534 C -6.269,-3.211 -5.143,-3.507 -3.89,-3.507 -1.606,-3.507 0,-2.409 0,0" /></g><g
           transform="translate(72.8032,38.5093)"
           id="g130"><path
             id="path132"
             style="fill:#000000;fill-opacity:1;fill-rule:nonzero;stroke:none"
             d="m 0,0 c -1.522,0 -2.381,0.661 -2.381,1.705 0,1 0.788,1.62 2.367,1.62 1.648,0 2.395,-0.65 2.395,-1.691 C 2.381,0.677 1.577,0 0,0 m -0.014,7.465 c 1.436,0 1.972,-0.704 1.972,-1.449 0,-0.72 -0.677,-1.297 -1.944,-1.297 -1.226,0 -1.974,0.563 -1.974,1.352 0,0.747 0.508,1.394 1.946,1.394 m 2.14,-3.338 c 1.014,0.408 1.324,1.351 1.324,1.93 0,1.903 -1.675,2.762 -3.436,2.762 -1.931,0 -3.467,-0.889 -3.467,-2.789 0,-0.593 0.31,-1.482 1.325,-1.903 -1.142,-0.422 -1.748,-1.27 -1.748,-2.45 0,-1.944 1.467,-3.031 3.849,-3.031 2.379,0 3.901,1.087 3.901,3.031 0,1.267 -0.69,2.055 -1.748,2.45" /></g><g
           transform="translate(67.7871,45.6787)"
           id="g134"><path
             id="path136"
             style="fill:#000000;fill-opacity:1;fill-rule:nonzero;stroke:none"
             d="M 0,0 V 1.495 H -6.889 V 0.057 h 5.17 c -1.845,-2.382 -3.001,-5.03 -3.055,-8.425 h 1.492 C -3.213,-4.706 -1.677,-1.873 0,0" /></g><g
           transform="translate(58.9531,37.311)"
           id="g138"><path
             id="path140"
             style="fill:#000000;fill-opacity:1;fill-rule:nonzero;stroke:none"
             d="M 0,0 V 9.863 H -1.196 C -1.378,8.99 -2.21,8.65 -3.227,8.58 V 7.552 h 1.748 l 0,-7.552 z" /></g><g
           transform="translate(51.0195,38.2139)"
           id="g142"><path
             id="path144"
             style="fill:#000000;fill-opacity:1;fill-rule:nonzero;stroke:none"
             d="m 0,0 c 0,0.567 -0.479,1.06 -1.048,1.06 -0.57,0 -1.046,-0.493 -1.046,-1.06 0,-0.572 0.476,-1.048 1.046,-1.048 C -0.479,-1.048 0,-0.572 0,0" /></g><g
           transform="translate(49.3892,45.7212)"
           id="g146"><path
             id="path148"
             style="fill:#000000;fill-opacity:1;fill-rule:nonzero;stroke:none"
             d="M 0,0 V 1.452 H -7.229 V 0 h 2.876 v -8.411 h 1.479 V 0 Z" /></g><g
           transform="translate(40.9917,40.1431)"
           id="g150"><path
             id="path152"
             style="fill:#000000;fill-opacity:1;fill-rule:nonzero;stroke:none"
             d="m 0,0 c 0,1.761 -1.212,2.381 -3.156,2.971 -1.705,0.508 -2.156,0.848 -2.156,1.536 0,0.663 0.492,1.226 1.647,1.226 0.974,0 1.678,-0.31 2.297,-0.943 l 1.044,1.057 c -0.875,0.843 -1.887,1.338 -3.227,1.338 -1.818,0 -3.254,-1.041 -3.254,-2.748 0,-1.76 1,-2.281 3.086,-2.901 1.647,-0.495 2.226,-0.873 2.226,-1.637 0,-0.954 -0.663,-1.435 -2.044,-1.435 -0.93,0 -1.9,0.451 -2.564,1.169 l -1.057,-1.028 c 0.832,-0.973 2.072,-1.593 3.509,-1.593 C -1.128,-2.988 0,-1.775 0,0" /></g><g
           transform="translate(32.4941,37.311)"
           id="g154"><path
             id="path156"
             style="fill:#000000;fill-opacity:1;fill-rule:nonzero;stroke:none"
             d="m 0,0 v 1.436 h -5.086 v 3.115 h 2.833 v 1.438 h -2.833 v 2.436 h 4.874 V 9.863 H -6.565 V 0 Z" /></g></g></g></g></svg>